<mxfile host="app.diagrams.net" agent="Mozilla/5.0 (Windows NT 10.0; Win64; x64) AppleWebKit/537.36 (KHTML, like Gecko) Chrome/135.0.0.0 Safari/537.36" version="26.2.13">
  <diagram id="yPxyJZ8AM_hMuL3Unpa9" name="gitflow">
    <mxGraphModel dx="1296" dy="586" grid="1" gridSize="10" guides="1" tooltips="1" connect="1" arrows="1" fold="1" page="1" pageScale="1" pageWidth="850" pageHeight="1100" math="0" shadow="0">
      <root>
        <mxCell id="0" />
        <mxCell id="1" parent="0" />
        <mxCell id="MT9pVr4SNbzEn-dsqQ-_-178" value="" style="edgeStyle=orthogonalEdgeStyle;rounded=0;orthogonalLoop=1;jettySize=auto;html=1;dashed=1;endArrow=none;startFill=0;curved=1;" edge="1" parent="1" source="4" target="MT9pVr4SNbzEn-dsqQ-_-177">
          <mxGeometry relative="1" as="geometry">
            <Array as="points">
              <mxPoint x="40" y="110" />
            </Array>
          </mxGeometry>
        </mxCell>
        <mxCell id="4" value="1.0" style="ellipse;whiteSpace=wrap;html=1;aspect=fixed;fillColor=#dae8fc;strokeColor=#6c8ebf;fontStyle=1;labelPosition=center;verticalLabelPosition=top;align=center;verticalAlign=bottom;fontColor=#0066CC;" parent="1" vertex="1">
          <mxGeometry x="30" y="60" width="20" height="20" as="geometry" />
        </mxCell>
        <mxCell id="7" value="Master" style="text;html=1;strokeColor=#6c8ebf;fillColor=#dae8fc;align=center;verticalAlign=middle;whiteSpace=wrap;rounded=0;" parent="1" vertex="1">
          <mxGeometry x="544" y="60" width="90" height="20" as="geometry" />
        </mxCell>
        <mxCell id="13" value="" style="endArrow=none;dashed=1;html=1;fillColor=#dae8fc;strokeColor=#6c8ebf;entryX=0;entryY=0.5;entryDx=0;entryDy=0;" parent="1" source="6" target="7" edge="1">
          <mxGeometry width="50" height="50" relative="1" as="geometry">
            <mxPoint x="50" y="70" as="sourcePoint" />
            <mxPoint x="719.9999999999716" y="70" as="targetPoint" />
          </mxGeometry>
        </mxCell>
        <mxCell id="6" value="2.0" style="ellipse;whiteSpace=wrap;html=1;aspect=fixed;fillColor=#dae8fc;strokeColor=#6c8ebf;fontStyle=1;labelPosition=center;verticalLabelPosition=top;align=center;verticalAlign=bottom;fontColor=#0066CC;" parent="1" vertex="1">
          <mxGeometry x="485" y="60" width="20" height="20" as="geometry" />
        </mxCell>
        <mxCell id="35" value="" style="endArrow=none;dashed=1;html=1;fillColor=#dae8fc;strokeColor=#6c8ebf;" parent="1" source="4" target="6" edge="1">
          <mxGeometry width="50" height="50" relative="1" as="geometry">
            <mxPoint x="49.9999999999917" y="70" as="sourcePoint" />
            <mxPoint x="690" y="70" as="targetPoint" />
            <Array as="points" />
          </mxGeometry>
        </mxCell>
        <mxCell id="85" value="&lt;font style=&quot;font-size: 11px;&quot;&gt;Feature / Javier&lt;/font&gt;" style="text;html=1;strokeColor=#9673a6;fillColor=#e1d5e7;align=center;verticalAlign=middle;whiteSpace=wrap;rounded=0;" parent="1" vertex="1">
          <mxGeometry x="544" y="150" width="90" height="20" as="geometry" />
        </mxCell>
        <mxCell id="86" value="&lt;font style=&quot;font-size: 11px;&quot;&gt;Feature / Luis&lt;/font&gt;" style="text;html=1;strokeColor=#9673a6;fillColor=#e1d5e7;align=center;verticalAlign=middle;whiteSpace=wrap;rounded=0;" parent="1" vertex="1">
          <mxGeometry x="544" y="211" width="90" height="20" as="geometry" />
        </mxCell>
        <mxCell id="102" value="Development" style="text;html=1;strokeColor=#82b366;fillColor=#d5e8d4;align=center;verticalAlign=middle;whiteSpace=wrap;rounded=0;" parent="1" vertex="1">
          <mxGeometry x="544" y="100" width="90" height="20" as="geometry" />
        </mxCell>
        <mxCell id="MT9pVr4SNbzEn-dsqQ-_-180" value="" style="edgeStyle=orthogonalEdgeStyle;rounded=0;orthogonalLoop=1;jettySize=auto;html=1;dashed=1;curved=1;endArrow=none;startFill=0;" edge="1" parent="1" source="MT9pVr4SNbzEn-dsqQ-_-177" target="MT9pVr4SNbzEn-dsqQ-_-179">
          <mxGeometry relative="1" as="geometry" />
        </mxCell>
        <mxCell id="MT9pVr4SNbzEn-dsqQ-_-186" value="" style="edgeStyle=orthogonalEdgeStyle;rounded=0;orthogonalLoop=1;jettySize=auto;html=1;dashed=1;endArrow=none;startFill=0;curved=1;" edge="1" parent="1" source="MT9pVr4SNbzEn-dsqQ-_-177" target="MT9pVr4SNbzEn-dsqQ-_-185">
          <mxGeometry relative="1" as="geometry">
            <Array as="points">
              <mxPoint x="90" y="160" />
            </Array>
          </mxGeometry>
        </mxCell>
        <mxCell id="MT9pVr4SNbzEn-dsqQ-_-235" value="" style="edgeStyle=orthogonalEdgeStyle;rounded=0;orthogonalLoop=1;jettySize=auto;html=1;entryX=0;entryY=0.5;entryDx=0;entryDy=0;dashed=1;endArrow=none;startFill=0;curved=1;" edge="1" parent="1" source="MT9pVr4SNbzEn-dsqQ-_-177" target="MT9pVr4SNbzEn-dsqQ-_-228">
          <mxGeometry relative="1" as="geometry">
            <mxPoint x="20" y="110" as="targetPoint" />
            <Array as="points">
              <mxPoint x="80" y="280" />
            </Array>
          </mxGeometry>
        </mxCell>
        <mxCell id="MT9pVr4SNbzEn-dsqQ-_-177" value="" style="ellipse;whiteSpace=wrap;html=1;verticalAlign=bottom;fillColor=#d5e8d4;strokeColor=#82b366;fontStyle=1;" vertex="1" parent="1">
          <mxGeometry x="70" y="100" width="20" height="20" as="geometry" />
        </mxCell>
        <mxCell id="MT9pVr4SNbzEn-dsqQ-_-182" value="" style="edgeStyle=orthogonalEdgeStyle;rounded=0;orthogonalLoop=1;jettySize=auto;html=1;dashed=1;curved=1;endArrow=none;startFill=0;" edge="1" parent="1" source="MT9pVr4SNbzEn-dsqQ-_-179" target="MT9pVr4SNbzEn-dsqQ-_-181">
          <mxGeometry relative="1" as="geometry" />
        </mxCell>
        <mxCell id="MT9pVr4SNbzEn-dsqQ-_-184" value="" style="edgeStyle=orthogonalEdgeStyle;rounded=0;orthogonalLoop=1;jettySize=auto;html=1;dashed=1;endArrow=none;startFill=0;" edge="1" parent="1" source="MT9pVr4SNbzEn-dsqQ-_-179" target="MT9pVr4SNbzEn-dsqQ-_-183">
          <mxGeometry relative="1" as="geometry" />
        </mxCell>
        <mxCell id="MT9pVr4SNbzEn-dsqQ-_-179" value="" style="ellipse;whiteSpace=wrap;html=1;verticalAlign=bottom;fillColor=#d5e8d4;strokeColor=#82b366;fontStyle=1;" vertex="1" parent="1">
          <mxGeometry x="404" y="100" width="20" height="20" as="geometry" />
        </mxCell>
        <mxCell id="MT9pVr4SNbzEn-dsqQ-_-181" value="" style="shape=waypoint;sketch=0;size=6;pointerEvents=1;points=[];fillColor=#d5e8d4;resizable=0;rotatable=0;perimeter=centerPerimeter;snapToPoint=1;verticalAlign=bottom;strokeColor=#82b366;fontStyle=1;" vertex="1" parent="1">
          <mxGeometry x="484" y="60" width="20" height="20" as="geometry" />
        </mxCell>
        <mxCell id="MT9pVr4SNbzEn-dsqQ-_-183" value="" style="shape=waypoint;sketch=0;size=6;pointerEvents=1;points=[];fillColor=#d5e8d4;resizable=0;rotatable=0;perimeter=centerPerimeter;snapToPoint=1;verticalAlign=bottom;strokeColor=#82b366;fontStyle=1;" vertex="1" parent="1">
          <mxGeometry x="534" y="100" width="20" height="20" as="geometry" />
        </mxCell>
        <mxCell id="MT9pVr4SNbzEn-dsqQ-_-188" value="" style="edgeStyle=orthogonalEdgeStyle;rounded=0;orthogonalLoop=1;jettySize=auto;html=1;dashed=1;endArrow=none;startFill=0;entryX=0;entryY=0.5;entryDx=0;entryDy=0;" edge="1" parent="1" source="MT9pVr4SNbzEn-dsqQ-_-185" target="MT9pVr4SNbzEn-dsqQ-_-189">
          <mxGeometry relative="1" as="geometry">
            <mxPoint x="245" y="160" as="targetPoint" />
          </mxGeometry>
        </mxCell>
        <mxCell id="MT9pVr4SNbzEn-dsqQ-_-185" value="" style="ellipse;whiteSpace=wrap;html=1;verticalAlign=bottom;fillColor=#e1d5e7;strokeColor=#9673a6;fontStyle=1;" vertex="1" parent="1">
          <mxGeometry x="144" y="150" width="20" height="20" as="geometry" />
        </mxCell>
        <mxCell id="MT9pVr4SNbzEn-dsqQ-_-207" value="" style="edgeStyle=orthogonalEdgeStyle;rounded=0;orthogonalLoop=1;jettySize=auto;html=1;curved=1;dashed=1;endArrow=none;startFill=0;" edge="1" parent="1" source="MT9pVr4SNbzEn-dsqQ-_-189" target="MT9pVr4SNbzEn-dsqQ-_-206">
          <mxGeometry relative="1" as="geometry" />
        </mxCell>
        <mxCell id="MT9pVr4SNbzEn-dsqQ-_-209" value="" style="edgeStyle=orthogonalEdgeStyle;rounded=0;orthogonalLoop=1;jettySize=auto;html=1;dashed=1;endArrow=none;startFill=0;" edge="1" parent="1" source="MT9pVr4SNbzEn-dsqQ-_-189" target="85">
          <mxGeometry relative="1" as="geometry">
            <mxPoint x="423.9999999999999" y="184.0204081632653" as="targetPoint" />
          </mxGeometry>
        </mxCell>
        <mxCell id="MT9pVr4SNbzEn-dsqQ-_-189" value="" style="ellipse;whiteSpace=wrap;html=1;verticalAlign=bottom;fillColor=#e1d5e7;strokeColor=#9673a6;fontStyle=1;" vertex="1" parent="1">
          <mxGeometry x="334" y="150" width="20" height="20" as="geometry" />
        </mxCell>
        <mxCell id="MT9pVr4SNbzEn-dsqQ-_-197" value="" style="edgeStyle=orthogonalEdgeStyle;rounded=0;orthogonalLoop=1;jettySize=auto;html=1;curved=1;endArrow=none;startFill=0;dashed=1;entryX=0;entryY=0.5;entryDx=0;entryDy=0;" edge="1" parent="1" source="MT9pVr4SNbzEn-dsqQ-_-177" target="MT9pVr4SNbzEn-dsqQ-_-195">
          <mxGeometry relative="1" as="geometry">
            <mxPoint x="82" y="120" as="sourcePoint" />
            <mxPoint x="100" y="200" as="targetPoint" />
            <Array as="points">
              <mxPoint x="90" y="220" />
              <mxPoint x="160" y="220" />
            </Array>
          </mxGeometry>
        </mxCell>
        <mxCell id="MT9pVr4SNbzEn-dsqQ-_-210" value="" style="edgeStyle=orthogonalEdgeStyle;rounded=0;orthogonalLoop=1;jettySize=auto;html=1;dashed=1;endArrow=none;startFill=0;" edge="1" parent="1">
          <mxGeometry relative="1" as="geometry">
            <mxPoint x="180" y="222" as="sourcePoint" />
            <mxPoint x="245" y="222" as="targetPoint" />
          </mxGeometry>
        </mxCell>
        <mxCell id="MT9pVr4SNbzEn-dsqQ-_-195" value="" style="ellipse;whiteSpace=wrap;html=1;verticalAlign=bottom;fillColor=#e1d5e7;strokeColor=#9673a6;fontStyle=1;" vertex="1" parent="1">
          <mxGeometry x="160" y="211" width="20" height="20" as="geometry" />
        </mxCell>
        <mxCell id="MT9pVr4SNbzEn-dsqQ-_-214" value="" style="edgeStyle=orthogonalEdgeStyle;rounded=0;orthogonalLoop=1;jettySize=auto;html=1;dashed=1;endArrow=none;startFill=0;" edge="1" parent="1">
          <mxGeometry relative="1" as="geometry">
            <mxPoint x="265" y="222" as="sourcePoint" />
            <mxPoint x="330" y="222" as="targetPoint" />
          </mxGeometry>
        </mxCell>
        <mxCell id="MT9pVr4SNbzEn-dsqQ-_-200" value="" style="ellipse;whiteSpace=wrap;html=1;verticalAlign=bottom;fillColor=#e1d5e7;strokeColor=#9673a6;fontStyle=1;" vertex="1" parent="1">
          <mxGeometry x="245" y="211" width="20" height="20" as="geometry" />
        </mxCell>
        <mxCell id="MT9pVr4SNbzEn-dsqQ-_-203" value="&lt;font style=&quot;font-size: 11px;&quot;&gt;Feature / Jazmin&lt;/font&gt;" style="text;html=1;strokeColor=#9673a6;fillColor=#e1d5e7;align=center;verticalAlign=middle;whiteSpace=wrap;rounded=0;" vertex="1" parent="1">
          <mxGeometry x="544" y="270" width="90" height="20" as="geometry" />
        </mxCell>
        <mxCell id="MT9pVr4SNbzEn-dsqQ-_-206" value="" style="shape=waypoint;sketch=0;size=6;pointerEvents=1;points=[];fillColor=#e1d5e7;resizable=0;rotatable=0;perimeter=centerPerimeter;snapToPoint=1;verticalAlign=bottom;strokeColor=#9673a6;fontStyle=1;" vertex="1" parent="1">
          <mxGeometry x="404" y="100" width="20" height="20" as="geometry" />
        </mxCell>
        <mxCell id="MT9pVr4SNbzEn-dsqQ-_-216" value="" style="edgeStyle=orthogonalEdgeStyle;rounded=0;orthogonalLoop=1;jettySize=auto;html=1;entryX=1.291;entryY=1.241;entryDx=0;entryDy=0;entryPerimeter=0;dashed=1;curved=1;endArrow=none;startFill=0;" edge="1" parent="1" source="MT9pVr4SNbzEn-dsqQ-_-213" target="MT9pVr4SNbzEn-dsqQ-_-206">
          <mxGeometry relative="1" as="geometry">
            <mxPoint x="400" y="195" as="targetPoint" />
          </mxGeometry>
        </mxCell>
        <mxCell id="MT9pVr4SNbzEn-dsqQ-_-218" value="" style="edgeStyle=orthogonalEdgeStyle;rounded=0;orthogonalLoop=1;jettySize=auto;html=1;endArrow=none;startFill=0;dashed=1;entryX=0;entryY=0.5;entryDx=0;entryDy=0;" edge="1" parent="1" source="MT9pVr4SNbzEn-dsqQ-_-213" target="86">
          <mxGeometry relative="1" as="geometry">
            <mxPoint x="540" y="200" as="targetPoint" />
          </mxGeometry>
        </mxCell>
        <mxCell id="MT9pVr4SNbzEn-dsqQ-_-213" value="" style="ellipse;whiteSpace=wrap;html=1;verticalAlign=bottom;fillColor=#e1d5e7;strokeColor=#9673a6;fontStyle=1;" vertex="1" parent="1">
          <mxGeometry x="330" y="211" width="20" height="20" as="geometry" />
        </mxCell>
        <mxCell id="MT9pVr4SNbzEn-dsqQ-_-220" value="&lt;font style=&quot;font-size: 9px;&quot;&gt;roles.md&lt;/font&gt;" style="text;html=1;align=center;verticalAlign=middle;whiteSpace=wrap;rounded=0;" vertex="1" parent="1">
          <mxGeometry x="126" y="120" width="60" height="30" as="geometry" />
        </mxCell>
        <mxCell id="MT9pVr4SNbzEn-dsqQ-_-221" value="&lt;font style=&quot;font-size: 9px;&quot;&gt;flujo-git.md&lt;/font&gt;" style="text;html=1;align=center;verticalAlign=middle;whiteSpace=wrap;rounded=0;" vertex="1" parent="1">
          <mxGeometry x="291" y="122" width="95" height="30" as="geometry" />
        </mxCell>
        <mxCell id="MT9pVr4SNbzEn-dsqQ-_-223" value="&lt;font style=&quot;font-size: 9px;&quot;&gt;funcionales-no-funcionales.md&lt;/font&gt;" style="text;html=1;align=center;verticalAlign=middle;whiteSpace=wrap;rounded=0;" vertex="1" parent="1">
          <mxGeometry x="20" y="181" width="204" height="30" as="geometry" />
        </mxCell>
        <mxCell id="MT9pVr4SNbzEn-dsqQ-_-225" value="&lt;font style=&quot;font-size: 9px;&quot;&gt;descripcion-sistema.md&lt;/font&gt;" style="text;html=1;align=center;verticalAlign=middle;whiteSpace=wrap;rounded=0;" vertex="1" parent="1">
          <mxGeometry x="290" y="179" width="110" height="30" as="geometry" />
        </mxCell>
        <mxCell id="MT9pVr4SNbzEn-dsqQ-_-226" value="&lt;font style=&quot;font-size: 9px;&quot;&gt;actores.md&lt;/font&gt;" style="text;html=1;align=center;verticalAlign=middle;whiteSpace=wrap;rounded=0;" vertex="1" parent="1">
          <mxGeometry x="219" y="180" width="69" height="30" as="geometry" />
        </mxCell>
        <mxCell id="MT9pVr4SNbzEn-dsqQ-_-238" value="" style="edgeStyle=orthogonalEdgeStyle;rounded=0;orthogonalLoop=1;jettySize=auto;html=1;dashed=1;endArrow=none;startFill=0;" edge="1" parent="1" source="MT9pVr4SNbzEn-dsqQ-_-228" target="MT9pVr4SNbzEn-dsqQ-_-229">
          <mxGeometry relative="1" as="geometry" />
        </mxCell>
        <mxCell id="MT9pVr4SNbzEn-dsqQ-_-228" value="" style="ellipse;whiteSpace=wrap;html=1;verticalAlign=bottom;fillColor=#e1d5e7;strokeColor=#9673a6;fontStyle=1;" vertex="1" parent="1">
          <mxGeometry x="160" y="270" width="20" height="20" as="geometry" />
        </mxCell>
        <mxCell id="MT9pVr4SNbzEn-dsqQ-_-239" value="" style="edgeStyle=orthogonalEdgeStyle;rounded=0;orthogonalLoop=1;jettySize=auto;html=1;dashed=1;endArrow=none;startFill=0;" edge="1" parent="1" source="MT9pVr4SNbzEn-dsqQ-_-229" target="MT9pVr4SNbzEn-dsqQ-_-231">
          <mxGeometry relative="1" as="geometry" />
        </mxCell>
        <mxCell id="MT9pVr4SNbzEn-dsqQ-_-229" value="" style="ellipse;whiteSpace=wrap;html=1;verticalAlign=bottom;fillColor=#e1d5e7;strokeColor=#9673a6;fontStyle=1;" vertex="1" parent="1">
          <mxGeometry x="245" y="270" width="20" height="20" as="geometry" />
        </mxCell>
        <mxCell id="MT9pVr4SNbzEn-dsqQ-_-237" value="" style="edgeStyle=orthogonalEdgeStyle;rounded=0;orthogonalLoop=1;jettySize=auto;html=1;entryX=0.622;entryY=0.66;entryDx=0;entryDy=0;entryPerimeter=0;dashed=1;endArrow=none;startFill=0;curved=1;" edge="1" parent="1" source="MT9pVr4SNbzEn-dsqQ-_-231" target="MT9pVr4SNbzEn-dsqQ-_-206">
          <mxGeometry relative="1" as="geometry">
            <mxPoint x="380" y="280" as="targetPoint" />
          </mxGeometry>
        </mxCell>
        <mxCell id="MT9pVr4SNbzEn-dsqQ-_-231" value="" style="ellipse;whiteSpace=wrap;html=1;verticalAlign=bottom;fillColor=#e1d5e7;strokeColor=#9673a6;fontStyle=1;" vertex="1" parent="1">
          <mxGeometry x="330" y="270" width="20" height="20" as="geometry" />
        </mxCell>
        <mxCell id="MT9pVr4SNbzEn-dsqQ-_-240" value="&lt;font style=&quot;font-size: 9px;&quot;&gt;imagenes-evidencias&lt;/font&gt;" style="text;html=1;align=center;verticalAlign=middle;whiteSpace=wrap;rounded=0;" vertex="1" parent="1">
          <mxGeometry x="119" y="289" width="90" height="30" as="geometry" />
        </mxCell>
        <mxCell id="MT9pVr4SNbzEn-dsqQ-_-241" value="&lt;font style=&quot;font-size: 9px;&quot;&gt;cronograma&lt;/font&gt;" style="text;html=1;align=center;verticalAlign=middle;whiteSpace=wrap;rounded=0;" vertex="1" parent="1">
          <mxGeometry x="227" y="288" width="61" height="30" as="geometry" />
        </mxCell>
        <mxCell id="MT9pVr4SNbzEn-dsqQ-_-242" value="&lt;font style=&quot;font-size: 9px;&quot;&gt;bitacora-acuerdos&lt;/font&gt;" style="text;html=1;align=center;verticalAlign=middle;whiteSpace=wrap;rounded=0;" vertex="1" parent="1">
          <mxGeometry x="304" y="288" width="79" height="30" as="geometry" />
        </mxCell>
        <mxCell id="MT9pVr4SNbzEn-dsqQ-_-243" value="" style="edgeStyle=orthogonalEdgeStyle;rounded=0;orthogonalLoop=1;jettySize=auto;html=1;endArrow=none;startFill=0;dashed=1;entryX=0;entryY=0.5;entryDx=0;entryDy=0;" edge="1" parent="1">
          <mxGeometry relative="1" as="geometry">
            <mxPoint x="350" y="279.44" as="sourcePoint" />
            <mxPoint x="544" y="279.44" as="targetPoint" />
          </mxGeometry>
        </mxCell>
      </root>
    </mxGraphModel>
  </diagram>
</mxfile>
